<?xml version="1.0" encoding="UTF-8" standalone="no"?>
<!DOCTYPE svg PUBLIC "-//W3C//DTD SVG 20010904//EN"
"http://www.w3.org/TR/2001/REC-SVG-20010904/DTD/svg10.dtd">
<svg
   width="80.000000mm"
   height="41.300000mm"
   viewBox="0 0 1 1"
   preserveAspectRatio="none"
   id="svg1400"
   sodipodi:version="0.32"
   inkscape:version="0.40"
   sodipodi:docname="logo-final.svg"
   sodipodi:docbase="/home/mato/work/imatix/graphics/amq"
   xmlns="http://www.w3.org/2000/svg"
   xmlns:cc="http://web.resource.org/cc/"
   xmlns:inkscape="http://www.inkscape.org/namespaces/inkscape"
   xmlns:sodipodi="http://sodipodi.sourceforge.net/DTD/sodipodi-0.dtd"
   xmlns:rdf="http://www.w3.org/1999/02/22-rdf-syntax-ns#"
   xmlns:xml="http://www.w3.org/XML/1998/namespace"
   xmlns:dc="http://purl.org/dc/elements/1.1/"
   xmlns:xlink="http://www.w3.org/1999/xlink"
   inkscape:export-filename="/home/mato/work/imatix/graphics/amq/logo-final-600DPI.png"
   inkscape:export-xdpi="600.00000"
   inkscape:export-ydpi="600.00000">
  <defs
     id="defs1460" />
  <metadata
     id="metadata1459">
    <rdf:RDF
       id="RDF1461">
      <cc:Work
         rdf:about=""
         id="Work1462">
        <dc:format
           id="format1463">image/svg+xml</dc:format>
        <dc:type
           id="type1465"
           rdf:resource="http://purl.org/dc/dcmitype/StillImage" />
      </cc:Work>
    </rdf:RDF>
  </metadata>
  <sodipodi:namedview
     id="base"
     pagecolor="#ffffff"
     bordercolor="#666666"
     borderopacity="1.0"
     inkscape:pageopacity="0.0"
     inkscape:pageshadow="2"
     inkscape:zoom="1.0000000"
     inkscape:cx="119.39246"
     inkscape:cy="56.555481"
     inkscape:window-width="834"
     inkscape:window-height="541"
     inkscape:window-x="109"
     inkscape:window-y="97"
     inkscape:current-layer="svg1400"
     showgrid="false"
     gridspacingy="4.9999999mm"
     gridspacingx="4.9999999mm"
     gridoriginy="0.0000000mm"
     gridoriginx="0.0000000mm"
     showborder="true" />
  <title
     id="title1401">SVG drawing</title>
  <desc
     id="desc1403">This was produced by version 4.1 of GNU libplot, a free library for exporting 2-D vector graphics.</desc>
  <g
     transform="matrix(8.432432e-3,0.000000,0.000000,-8.432432e-3,-0.468523,1.000002)"
     xml:space="preserve"
     style="font-style:normal;font-variant:normal;font-weight:normal;font-stretch:normal;fill:none;fill-opacity:1.0000000;stroke:#000000;stroke-linecap:butt;stroke-linejoin:miter;stroke-miterlimit:10.433000;stroke-dashoffset:0.0000000;stroke-opacity:1.0000000;letter-spacing:0.0000000;text-anchor:start"
     id="g1406">
<path
   d="M 7.7500000,4.1291000 L 7.6498000,4.0815000 L 7.5502000,4.0351000 L 7.4513000,3.9901000 L 7.3530000,3.9464000 L 7.2553000,3.9041000 L 7.1582000,3.8631000 L 7.0618000,3.8234000 L 6.9661000,3.7851000 L 6.8709000,3.7482000 L 6.7765000,3.7125000 L 6.6826000,3.6783000 L 6.5894000,3.6454000 L 6.4969000,3.6138000 L 6.4050000,3.5836000 L 6.3137000,3.5548000 L 6.2231000,3.5273000 C 5.7412000,3.3843000 5.2295000,3.3123000 4.6875000,3.3123000 C 3.9976000,3.3123000 3.3647000,3.4143000 2.7886000,3.6162000 C 2.2124000,3.8184000 1.7192000,4.1252000 1.3086000,4.5374000 C 0.89258000,4.9473000 0.57031000,5.4663000 0.34229000,6.0942000 C 0.11377000,6.7222000 0.0000000,7.4563000 0.0000000,8.2952000 C 0.0000000,9.8594000 0.42871000,11.086000 1.2871000,11.976000 C 2.1455000,12.867000 3.2788000,13.312000 4.6875000,13.312000 C 5.2349000,13.312000 5.7725000,13.234000 6.2998000,13.080000 C 6.8271000,12.925000 7.3106000,12.736000 7.7500000,12.513000 L 7.7500000,10.718000 L 7.6641000,10.718000 C 7.1729000,11.099000 6.6655000,11.393000 6.1431000,11.598000 C 5.6201000,11.803000 5.1104000,11.906000 4.6133000,11.906000 C 3.6987000,11.906000 2.9771000,11.599000 2.4487000,10.988000 C 1.9204000,10.377000 1.6562000,9.4783000 1.6562000,8.2952000 C 1.6562000,7.1462000 1.9145000,6.2612000 2.4316000,5.6443000 C 2.9487000,5.0273000 3.6758000,4.7183000 4.6133000,4.7183000 C 4.9385000,4.7183000 5.2700000,4.7612000 5.6069000,4.8462000 C 5.9439000,4.9311000 6.2471000,5.0432000 6.5156000,5.1792000 C 6.7500000,5.2983000 6.9697000,5.4253000 7.1758000,5.5603000 C 7.3814000,5.6934000 7.5440000,5.8093000 7.6641000,5.9062000 L 7.7500000,5.9062000 L 7.7500000,4.1291000 z "
   style="fill:#000000;fill-rule:nonzero;stroke-width:0.0000000;stroke-dashoffset:0.0000000"
   id="path1408" />


<path
   d="M 19.330000,8.2932000 L 19.329000,8.1489000 L 19.325000,8.0066000 L 19.320000,7.8661000 L 19.311000,7.7276000 L 19.301000,7.5910000 L 19.288000,7.4563000 L 19.273000,7.3235000 L 19.255000,7.1926000 L 19.235000,7.0636000 L 19.213000,6.9365000 L 19.189000,6.8114000 L 19.162000,6.6881000 L 19.133000,6.5668000 L 19.101000,6.4474000 L 19.067000,6.3299000 L 19.031000,6.2143000 L 18.992000,6.1007000 L 18.951000,5.9889000 L 18.908000,5.8790000 L 18.863000,5.7711000 L 18.815000,5.6651000 L 18.764000,5.5610000 L 18.712000,5.4588000 L 18.657000,5.3585000 L 18.600000,5.2602000 L 18.540000,5.1637000 L 18.478000,5.0692000 L 18.414000,4.9766000 L 18.347000,4.8859000 L 18.278000,4.7971000 L 18.207000,4.7102000 L 18.133000,4.6252000 C 17.335000,3.7283000 16.267000,3.2812000 14.928000,3.2812000 L 14.928000,4.6873000 C 15.783000,4.6873000 16.455000,4.9902000 16.942000,5.5952000 C 17.430000,6.2002000 17.674000,7.0994000 17.674000,8.2932000 L 17.674000,8.2932000 C 17.674000,9.5132000 17.431000,10.421000 16.947000,11.015000 C 16.462000,11.609000 15.789000,11.906000 14.928000,11.906000 C 14.056000,11.906000 13.378000,11.609000 12.896000,11.015000 C 12.415000,10.421000 12.174000,9.5132000 12.174000,8.2932000 C 12.174000,7.1104000 12.416000,6.2131000 12.901000,5.6033000 C 13.385000,4.9922000 14.061000,4.6873000 14.928000,4.6873000 L 14.928000,3.2812000 C 13.578000,3.2812000 12.505000,3.7283000 11.710000,4.6252000 C 10.915000,5.5212000 10.518000,6.7441000 10.518000,8.2932000 C 10.518000,9.8403000 10.915000,11.064000 11.710000,11.963000 C 12.505000,12.863000 13.578000,13.312000 14.928000,13.312000 C 16.267000,13.312000 17.335000,12.863000 18.133000,11.963000 C 18.931000,11.064000 19.330000,9.8403000 19.330000,8.2932000 z "
   style="fill:#000000;fill-rule:nonzero;stroke-width:0.0000000;stroke-dashoffset:0.0000000"
   id="path1410" />


<path
   d="M 37.132000,3.5312000 L 35.539000,3.5312000 L 35.539000,8.9463000 C 35.539000,9.3542000 35.520000,9.7493000 35.483000,10.129000 C 35.446000,10.509000 35.367000,10.813000 35.248000,11.041000 C 35.116000,11.285000 34.928000,11.468000 34.683000,11.593000 C 34.437000,11.718000 34.083000,11.781000 33.621000,11.781000 C 33.170000,11.781000 32.720000,11.669000 32.269000,11.445000 C 31.818000,11.220000 31.367000,10.935000 30.917000,10.589000 C 30.933000,10.459000 30.947000,10.306000 30.959000,10.133000 C 30.970000,9.9612000 30.976000,9.7893000 30.976000,9.6191000 L 30.976000,3.5312000 L 29.382000,3.5312000 L 29.382000,8.9463000 C 29.382000,9.3662000 29.364000,9.7642000 29.327000,10.142000 C 29.290000,10.519000 29.211000,10.822000 29.091000,11.048000 C 28.960000,11.293000 28.771000,11.476000 28.526000,11.597000 C 28.281000,11.720000 27.927000,11.781000 27.465000,11.781000 C 27.025000,11.781000 26.584000,11.673000 26.142000,11.457000 C 25.700000,11.242000 25.259000,10.966000 24.820000,10.631000 L 24.820000,3.5312000 L 23.226000,3.5312000 L 23.226000,13.062000 L 24.820000,13.062000 L 24.820000,12.004000 C 25.321000,12.415000 25.820000,12.736000 26.318000,12.966000 C 26.816000,13.197000 27.347000,13.312000 27.911000,13.312000 C 28.560000,13.312000 29.110000,13.177000 29.563000,12.906000 C 30.016000,12.636000 30.353000,12.261000 30.575000,11.783000 C 31.224000,12.324000 31.816000,12.713000 32.351000,12.953000 C 32.886000,13.192000 33.458000,13.312000 34.067000,13.312000 C 35.114000,13.312000 35.887000,12.996000 36.385000,12.362000 C 36.883000,11.728000 37.132000,10.843000 37.132000,9.7092000 L 37.132000,3.5312000 z "
   style="fill:#000000;fill-rule:nonzero;stroke-width:0.0000000;stroke-dashoffset:0.0000000"
   id="path1412" />


<path
   d="M 55.554000,3.5312000 L 53.960000,3.5312000 L 53.960000,8.9463000 C 53.960000,9.3542000 53.942000,9.7493000 53.905000,10.129000 C 53.868000,10.509000 53.789000,10.813000 53.669000,11.041000 C 53.538000,11.285000 53.350000,11.468000 53.104000,11.593000 C 52.859000,11.718000 52.505000,11.781000 52.043000,11.781000 C 51.592000,11.781000 51.142000,11.669000 50.691000,11.445000 C 50.240000,11.220000 49.789000,10.935000 49.338000,10.589000 C 49.355000,10.459000 49.369000,10.306000 49.381000,10.133000 C 49.392000,9.9612000 49.398000,9.7893000 49.398000,9.6191000 L 49.398000,3.5312000 L 47.804000,3.5312000 L 47.804000,8.9463000 C 47.804000,9.3662000 47.786000,9.7642000 47.749000,10.142000 C 47.711000,10.519000 47.633000,10.822000 47.513000,11.048000 C 47.382000,11.293000 47.193000,11.476000 46.948000,11.597000 C 46.703000,11.720000 46.349000,11.781000 45.887000,11.781000 C 45.447000,11.781000 45.006000,11.673000 44.564000,11.457000 C 44.122000,11.242000 43.681000,10.966000 43.242000,10.631000 L 43.242000,3.5312000 L 41.648000,3.5312000 L 41.648000,13.062000 L 43.242000,13.062000 L 43.242000,12.004000 C 43.743000,12.415000 44.242000,12.736000 44.740000,12.966000 C 45.238000,13.197000 45.769000,13.312000 46.333000,13.312000 C 46.981000,13.312000 47.532000,13.177000 47.985000,12.906000 C 48.438000,12.636000 48.775000,12.261000 48.997000,11.783000 C 49.646000,12.324000 50.238000,12.713000 50.773000,12.953000 C 51.308000,13.192000 51.880000,13.312000 52.489000,13.312000 C 53.536000,13.312000 54.309000,12.996000 54.807000,12.362000 C 55.305000,11.728000 55.554000,10.843000 55.554000,9.7092000 L 55.554000,3.5312000 z "
   style="fill:#000000;fill-rule:nonzero;stroke-width:0.0000000;stroke-dashoffset:0.0000000"
   id="path1414" />


<path
   d="M 68.194000,8.2932000 L 68.193000,8.1489000 L 68.190000,8.0066000 L 68.184000,7.8661000 L 68.176000,7.7276000 L 68.165000,7.5910000 L 68.152000,7.4563000 L 68.137000,7.3235000 L 68.120000,7.1926000 L 68.100000,7.0636000 L 68.077000,6.9365000 L 68.053000,6.8114000 L 68.026000,6.6881000 L 67.997000,6.5668000 L 67.965000,6.4474000 L 67.931000,6.3299000 L 67.895000,6.2143000 L 67.857000,6.1007000 L 67.816000,5.9889000 L 67.772000,5.8790000 L 67.727000,5.7711000 L 67.679000,5.6651000 L 67.629000,5.5610000 L 67.576000,5.4588000 L 67.521000,5.3585000 L 67.464000,5.2602000 L 67.404000,5.1637000 L 67.342000,5.0692000 L 67.278000,4.9766000 L 67.211000,4.8859000 L 67.143000,4.7971000 L 67.071000,4.7102000 L 66.998000,4.6252000 C 66.200000,3.7283000 65.131000,3.2812000 63.792000,3.2812000 L 63.792000,4.6873000 C 64.647000,4.6873000 65.319000,4.9902000 65.807000,5.5952000 C 66.294000,6.2002000 66.538000,7.0994000 66.538000,8.2932000 L 66.538000,8.2932000 C 66.538000,9.5132000 66.295000,10.421000 65.811000,11.015000 C 65.326000,11.609000 64.653000,11.906000 63.792000,11.906000 C 62.920000,11.906000 62.243000,11.609000 61.761000,11.015000 C 61.279000,10.421000 61.038000,9.5132000 61.038000,8.2932000 C 61.038000,7.1104000 61.280000,6.2131000 61.765000,5.6033000 C 62.250000,4.9922000 62.925000,4.6873000 63.792000,4.6873000 L 63.792000,3.2812000 C 62.442000,3.2812000 61.369000,3.7283000 60.574000,4.6252000 C 59.779000,5.5212000 59.382000,6.7441000 59.382000,8.2932000 C 59.382000,9.8403000 59.779000,11.064000 60.574000,11.963000 C 61.369000,12.863000 62.442000,13.312000 63.792000,13.312000 C 65.131000,13.312000 66.200000,12.863000 66.998000,11.963000 C 67.795000,11.064000 68.194000,9.8403000 68.194000,8.2932000 z "
   style="fill:#000000;fill-rule:nonzero;stroke-width:0.0000000;stroke-dashoffset:0.0000000"
   id="path1416" />


<path
   d="M 79.810000,3.5312000 L 78.216000,3.5312000 L 78.216000,4.5413000 L 78.216000,5.8862000 L 78.216000,11.304000 C 77.781000,11.496000 77.392000,11.629000 77.049000,11.703000 C 76.706000,11.775000 76.331000,11.812000 75.925000,11.812000 C 75.021000,11.812000 74.317000,11.502000 73.814000,10.882000 C 73.311000,10.261000 73.060000,9.3823000 73.060000,8.2441000 C 73.060000,7.1233000 73.254000,6.2703000 73.643000,5.6873000 C 74.032000,5.1033000 74.655000,4.8123000 75.513000,4.8123000 C 75.971000,4.8123000 76.434000,4.9124000 76.903000,5.1123000 C 77.372000,5.3123000 77.810000,5.5703000 78.216000,5.8862000 L 78.216000,5.8862000 L 78.216000,4.5413000 C 77.753000,4.1423000 77.270000,3.8342000 76.768000,3.6133000 C 76.265000,3.3923000 75.719000,3.2812000 75.131000,3.2812000 C 73.988000,3.2812000 73.081000,3.7173000 72.410000,4.5913000 C 71.739000,5.4644000 71.403000,6.6753000 71.403000,8.2244000 C 71.403000,9.0293000 71.519000,9.7473000 71.751000,10.377000 C 71.982000,11.006000 72.294000,11.543000 72.688000,11.985000 C 73.077000,12.416000 73.530000,12.745000 74.047000,12.972000 C 74.563000,13.199000 75.099000,13.312000 75.654000,13.312000 C 76.156000,13.312000 76.602000,13.259000 76.990000,13.154000 C 77.379000,13.049000 77.787000,12.886000 78.216000,12.666000 L 78.216000,16.812000 L 79.810000,16.812000 L 79.810000,3.5312000 z "
   style="fill:#000000;fill-rule:nonzero;stroke-width:0.0000000;stroke-dashoffset:0.0000000"
   id="path1418" />


<polygon
   points="85.988000,3.5312000 84.394000,3.5312000 84.394000,13.062000 85.988000,13.062000 85.988000,3.5312000 "
   style="fill:#000000;fill-rule:nonzero;stroke-width:0.0000000;stroke-dashoffset:0.0000000"
   id="polygon1420" />


<polygon
   points="86.081000,14.687000 84.300000,14.687000 84.300000,16.343000 86.081000,16.343000 86.081000,14.687000 "
   style="fill:#000000;fill-rule:nonzero;stroke-width:0.0000000;stroke-dashoffset:0.0000000"
   id="polygon1422" />


<path
   d="M 95.565000,3.5862000 L 95.507000,3.5712000 L 95.449000,3.5566000 L 95.331000,3.5286000 L 95.210000,3.5020000 L 95.087000,3.4767000 L 94.961000,3.4528000 L 94.833000,3.4301000 L 94.702000,3.4086000 L 94.568000,3.3882000 C 94.209000,3.3381000 93.888000,3.3123000 93.607000,3.3123000 C 92.623000,3.3123000 91.876000,3.5752000 91.364000,4.1003000 C 90.852000,4.6262000 90.596000,5.4683000 90.596000,6.6291000 L 90.596000,11.718000 L 89.502000,11.718000 L 89.502000,13.062000 L 90.596000,13.062000 L 90.596000,15.812000 L 92.190000,15.812000 L 92.190000,13.062000 L 95.565000,13.062000 L 95.565000,11.718000 L 92.190000,11.718000 L 92.190000,7.3523000 C 92.190000,6.8494000 92.201000,6.4563000 92.225000,6.1724000 C 92.248000,5.8892000 92.329000,5.6252000 92.468000,5.3791000 C 92.596000,5.1501000 92.771000,4.9822000 92.995000,4.8772000 C 93.218000,4.7712000 93.559000,4.7183000 94.017000,4.7183000 C 94.283000,4.7183000 94.562000,4.7573000 94.852000,4.8362000 C 95.142000,4.9143000 95.350000,4.9783000 95.478000,5.0312000 L 95.565000,5.0312000 L 95.565000,3.5862000 z "
   style="fill:#000000;fill-rule:nonzero;stroke-width:0.0000000;stroke-dashoffset:0.0000000"
   id="path1424" />


<polygon
   points="107.03000,13.062000 101.47000,0.00024414000 99.748000,0.00024414000 101.53000,3.9802000 97.744000,13.062000 99.471000,13.062000 102.40000,5.9873000 105.33000,13.062000 107.03000,13.062000 "
   style="fill:#000000;fill-rule:nonzero;stroke-width:0.0000000;stroke-dashoffset:0.0000000"
   id="polygon1426" />


<path
   d="M 132.02000,3.5312000 L 130.43000,3.5312000 L 130.43000,8.9463000 C 130.43000,9.3542000 130.41000,9.7493000 130.37000,10.129000 C 130.34000,10.509000 130.26000,10.813000 130.14000,11.041000 C 130.01000,11.285000 129.82000,11.468000 129.57000,11.593000 C 129.33000,11.718000 128.97000,11.781000 128.51000,11.781000 C 128.06000,11.781000 127.61000,11.669000 127.16000,11.445000 C 126.71000,11.220000 126.26000,10.935000 125.81000,10.589000 C 125.82000,10.459000 125.84000,10.306000 125.85000,10.133000 C 125.86000,9.9612000 125.87000,9.7893000 125.87000,9.6191000 L 125.87000,3.5312000 L 124.27000,3.5312000 L 124.27000,8.9463000 C 124.27000,9.3662000 124.25000,9.7642000 124.22000,10.142000 C 124.18000,10.519000 124.10000,10.822000 123.98000,11.048000 C 123.85000,11.293000 123.66000,11.476000 123.42000,11.597000 C 123.17000,11.720000 122.82000,11.781000 122.36000,11.781000 C 121.92000,11.781000 121.47000,11.673000 121.03000,11.457000 C 120.59000,11.242000 120.15000,10.966000 119.71000,10.631000 L 119.71000,3.5312000 L 118.12000,3.5312000 L 118.12000,13.062000 L 119.71000,13.062000 L 119.71000,12.004000 C 120.21000,12.415000 120.71000,12.736000 121.21000,12.966000 C 121.71000,13.197000 122.24000,13.312000 122.80000,13.312000 C 123.45000,13.312000 124.00000,13.177000 124.45000,12.906000 C 124.91000,12.636000 125.24000,12.261000 125.46000,11.783000 C 126.11000,12.324000 126.71000,12.713000 127.24000,12.953000 C 127.78000,13.192000 128.35000,13.312000 128.96000,13.312000 C 130.00000,13.312000 130.78000,12.996000 131.27000,12.362000 C 131.77000,11.728000 132.02000,10.843000 132.02000,9.7092000 L 132.02000,3.5312000 z "
   style="fill:#000000;fill-rule:nonzero;stroke-width:0.0000000;stroke-dashoffset:0.0000000"
   id="path1428" />


<polygon
   points="138.13000,3.5312000 136.54000,3.5312000 136.54000,13.062000 138.13000,13.062000 138.13000,3.5312000 "
   style="fill:#000000;fill-rule:nonzero;stroke-width:0.0000000;stroke-dashoffset:0.0000000"
   id="polygon1430" />


<polygon
   points="138.23000,14.687000 136.44000,14.687000 136.44000,16.343000 138.23000,16.343000 138.23000,14.687000 "
   style="fill:#000000;fill-rule:nonzero;stroke-width:0.0000000;stroke-dashoffset:0.0000000"
   id="polygon1432" />


<path
   d="M 150.46000,3.5312000 L 148.87000,3.5312000 L 148.87000,4.5413000 L 148.87000,5.8862000 L 148.87000,11.304000 C 148.43000,11.496000 148.04000,11.629000 147.70000,11.703000 C 147.35000,11.775000 146.98000,11.812000 146.57000,11.812000 C 145.67000,11.812000 144.97000,11.502000 144.46000,10.882000 C 143.96000,10.261000 143.71000,9.3823000 143.71000,8.2441000 C 143.71000,7.1233000 143.90000,6.2703000 144.29000,5.6873000 C 144.68000,5.1033000 145.30000,4.8123000 146.16000,4.8123000 C 146.62000,4.8123000 147.08000,4.9124000 147.55000,5.1123000 C 148.02000,5.3123000 148.46000,5.5703000 148.87000,5.8862000 L 148.87000,5.8862000 L 148.87000,4.5413000 C 148.40000,4.1423000 147.92000,3.8342000 147.42000,3.6133000 C 146.91000,3.3923000 146.37000,3.2812000 145.78000,3.2812000 C 144.64000,3.2812000 143.73000,3.7173000 143.06000,4.5913000 C 142.39000,5.4644000 142.05000,6.6753000 142.05000,8.2244000 C 142.05000,9.0293000 142.17000,9.7473000 142.40000,10.377000 C 142.63000,11.006000 142.94000,11.543000 143.34000,11.985000 C 143.73000,12.416000 144.18000,12.745000 144.70000,12.972000 C 145.21000,13.199000 145.75000,13.312000 146.30000,13.312000 C 146.80000,13.312000 147.25000,13.259000 147.64000,13.154000 C 148.03000,13.049000 148.44000,12.886000 148.87000,12.666000 L 148.87000,16.812000 L 150.46000,16.812000 L 150.46000,3.5312000 z "
   style="fill:#000000;fill-rule:nonzero;stroke-width:0.0000000;stroke-dashoffset:0.0000000"
   id="path1434" />


<path
   d="M 162.76000,3.5312000 L 161.17000,3.5312000 L 161.17000,4.5413000 L 161.17000,5.8862000 L 161.17000,11.304000 C 160.73000,11.496000 160.34000,11.629000 160.00000,11.703000 C 159.66000,11.775000 159.28000,11.812000 158.88000,11.812000 C 157.97000,11.812000 157.27000,11.502000 156.77000,10.882000 C 156.26000,10.261000 156.01000,9.3823000 156.01000,8.2441000 C 156.01000,7.1233000 156.21000,6.2703000 156.60000,5.6873000 C 156.98000,5.1033000 157.61000,4.8123000 158.46000,4.8123000 C 158.92000,4.8123000 159.39000,4.9124000 159.85000,5.1123000 C 160.32000,5.3123000 160.76000,5.5703000 161.17000,5.8862000 L 161.17000,5.8862000 L 161.17000,4.5413000 C 160.71000,4.1423000 160.22000,3.8342000 159.72000,3.6133000 C 159.22000,3.3923000 158.67000,3.2812000 158.08000,3.2812000 C 156.94000,3.2812000 156.03000,3.7173000 155.36000,4.5913000 C 154.69000,5.4644000 154.35000,6.6753000 154.35000,8.2244000 C 154.35000,9.0293000 154.47000,9.7473000 154.70000,10.377000 C 154.93000,11.006000 155.25000,11.543000 155.64000,11.985000 C 156.03000,12.416000 156.48000,12.745000 157.00000,12.972000 C 157.51000,13.199000 158.05000,13.312000 158.60000,13.312000 C 159.11000,13.312000 159.55000,13.259000 159.94000,13.154000 C 160.33000,13.049000 160.74000,12.886000 161.17000,12.666000 L 161.17000,16.812000 L 162.76000,16.812000 L 162.76000,3.5312000 z "
   style="fill:#000000;fill-rule:nonzero;stroke-width:0.0000000;stroke-dashoffset:0.0000000"
   id="path1436" />


<polygon
   points="168.94000,3.5312000 167.35000,3.5312000 167.35000,16.812000 168.94000,16.812000 168.94000,3.5312000 "
   style="fill:#000000;fill-rule:nonzero;stroke-width:0.0000000;stroke-dashoffset:0.0000000"
   id="polygon1438" />


<path
   d="M 181.55000,8.1252000 L 174.52000,8.1252000 L 174.52000,9.3433000 L 179.99000,9.3433000 C 179.98000,10.189000 179.77000,10.842000 179.35000,11.305000 C 178.93000,11.768000 178.29000,12.000000 177.44000,12.000000 C 176.58000,12.000000 175.89000,11.746000 175.38000,11.237000 C 174.88000,10.728000 174.59000,10.097000 174.52000,9.3433000 L 174.52000,8.1252000 C 174.52000,7.5413000 174.60000,7.0332000 174.78000,6.5994000 C 174.96000,6.1663000 175.20000,5.8113000 175.51000,5.5342000 C 175.80000,5.2612000 176.16000,5.0584000 176.56000,4.9211000 C 176.97000,4.7874000 177.42000,4.7183000 177.91000,4.7183000 C 178.56000,4.7183000 179.21000,4.8481000 179.87000,5.1082000 C 180.53000,5.3682000 181.00000,5.6233000 181.27000,5.8752000 L 181.36000,5.8752000 L 181.36000,4.1182000 C 180.82000,3.8892000 180.26000,3.6982000 179.70000,3.5442000 C 179.13000,3.3892000 178.54000,3.3123000 177.92000,3.3123000 C 176.33000,3.3123000 175.09000,3.7402000 174.20000,4.5933000 C 173.31000,5.4492000 172.86000,6.6624000 172.86000,8.2363000 C 172.86000,9.7913000 173.29000,11.027000 174.14000,11.941000 C 175.00000,12.855000 176.12000,13.312000 177.51000,13.312000 C 178.80000,13.312000 179.80000,12.937000 180.50000,12.187000 C 181.20000,11.438000 181.55000,10.373000 181.55000,8.9941000 L 181.55000,8.1252000 z "
   style="fill:#000000;fill-rule:nonzero;stroke-width:0.0000000;stroke-dashoffset:0.0000000"
   id="path1440" />


<polygon
   points="197.37000,13.062000 194.89000,3.5312000 193.40000,3.5312000 190.95000,10.878000 188.52000,3.5312000 187.04000,3.5312000 184.53000,13.062000 186.18000,13.062000 187.96000,5.6811000 190.34000,13.062000 191.66000,13.062000 194.10000,5.6811000 195.76000,13.062000 197.37000,13.062000 "
   style="fill:#000000;fill-rule:nonzero;stroke-width:0.0000000;stroke-dashoffset:0.0000000"
   id="polygon1442" />


<path
   d="M 208.33000,3.5312000 L 206.74000,3.5312000 L 206.74000,4.5613000 C 206.59000,4.4644000 206.40000,4.3303000 206.16000,4.1562000 L 205.44000,5.1072000 C 205.91000,5.3262000 206.34000,5.5872000 206.74000,5.8923000 L 206.74000,5.8923000 L 206.74000,8.5312000 C 206.25000,8.5032000 205.67000,8.4612000 205.01000,8.4043000 C 204.35000,8.3472000 203.82000,8.2651000 203.43000,8.1582000 C 202.97000,8.0273000 202.60000,7.8262000 202.32000,7.5503000 C 202.04000,7.2773000 201.89000,6.8982000 201.89000,6.4182000 C 201.89000,5.8752000 202.06000,5.4663000 202.39000,5.1921000 C 202.72000,4.9182000 203.22000,4.7812000 203.90000,4.7812000 C 204.46000,4.7812000 204.97000,4.8901000 205.44000,5.1072000 L 206.16000,4.1562000 C 205.92000,3.9822000 205.68000,3.8442000 205.46000,3.7422000 C 205.19000,3.6113000 204.88000,3.5022000 204.54000,3.4143000 C 204.19000,3.3262000 203.78000,3.2812000 203.32000,3.2812000 C 202.46000,3.2812000 201.73000,3.5652000 201.13000,4.1343000 C 200.54000,4.7034000 200.24000,5.4282000 200.24000,6.3103000 C 200.24000,7.0332000 200.39000,7.6172000 200.70000,8.0642000 C 201.01000,8.5103000 201.45000,8.8623000 202.03000,9.1182000 C 202.61000,9.3743000 203.30000,9.5474000 204.12000,9.6382000 C 204.93000,9.7292000 205.80000,9.7974000 206.74000,9.8433000 L 206.74000,10.092000 C 206.74000,10.459000 206.67000,10.763000 206.54000,11.004000 C 206.42000,11.244000 206.23000,11.433000 205.99000,11.571000 C 205.77000,11.703000 205.49000,11.791000 205.17000,11.838000 C 204.86000,11.882000 204.52000,11.906000 204.18000,11.906000 C 203.76000,11.906000 203.29000,11.849000 202.77000,11.738000 C 202.25000,11.625000 201.72000,11.462000 201.17000,11.250000 L 201.08000,11.250000 L 201.08000,12.878000 C 201.39000,12.962000 201.84000,13.056000 202.43000,13.159000 C 203.03000,13.261000 203.61000,13.312000 204.18000,13.312000 C 204.85000,13.312000 205.44000,13.256000 205.94000,13.145000 C 206.43000,13.034000 206.87000,12.844000 207.23000,12.577000 C 207.59000,12.314000 207.86000,11.975000 208.05000,11.559000 C 208.24000,11.143000 208.33000,10.627000 208.33000,10.011000 L 208.33000,3.5312000 z "
   style="fill:#000000;fill-rule:nonzero;stroke-width:0.0000000;stroke-dashoffset:0.0000000"
   id="path1444" />


<path
   d="M 218.77000,11.312000 L 218.68000,11.312000 C 218.45000,11.367000 218.21000,11.406000 217.99000,11.431000 C 217.76000,11.456000 217.50000,11.468000 217.19000,11.468000 C 216.70000,11.468000 216.22000,11.359000 215.76000,11.140000 C 215.30000,10.921000 214.85000,10.638000 214.43000,10.292000 L 214.43000,3.5312000 L 212.83000,3.5312000 L 212.83000,13.062000 L 214.43000,13.062000 L 214.43000,11.654000 C 215.06000,12.166000 215.63000,12.529000 216.11000,12.742000 C 216.60000,12.955000 217.10000,13.062000 217.60000,13.062000 C 217.88000,13.062000 218.08000,13.054000 218.21000,13.041000 C 218.33000,13.027000 218.52000,13.000000 218.77000,12.960000 L 218.77000,11.312000 z "
   style="fill:#000000;fill-rule:nonzero;stroke-width:0.0000000;stroke-dashoffset:0.0000000"
   id="path1446" />


<path
   d="M 229.70000,8.1252000 L 222.67000,8.1252000 L 222.67000,9.3433000 L 228.14000,9.3433000 C 228.13000,10.189000 227.92000,10.842000 227.50000,11.305000 C 227.08000,11.768000 226.45000,12.000000 225.59000,12.000000 C 224.73000,12.000000 224.05000,11.746000 223.54000,11.237000 C 223.03000,10.728000 222.74000,10.097000 222.67000,9.3433000 L 222.67000,8.1252000 C 222.67000,7.5413000 222.76000,7.0332000 222.93000,6.5994000 C 223.11000,6.1663000 223.35000,5.8113000 223.66000,5.5342000 C 223.96000,5.2612000 224.31000,5.0584000 224.72000,4.9211000 C 225.12000,4.7874000 225.57000,4.7183000 226.06000,4.7183000 C 226.71000,4.7183000 227.37000,4.8481000 228.02000,5.1082000 C 228.68000,5.3682000 229.15000,5.6233000 229.43000,5.8752000 L 229.51000,5.8752000 L 229.51000,4.1182000 C 228.97000,3.8892000 228.42000,3.6982000 227.85000,3.5442000 C 227.29000,3.3892000 226.69000,3.3123000 226.07000,3.3123000 C 224.48000,3.3123000 223.24000,3.7402000 222.35000,4.5933000 C 221.46000,5.4492000 221.01000,6.6624000 221.01000,8.2363000 C 221.01000,9.7913000 221.44000,11.027000 222.29000,11.941000 C 223.15000,12.855000 224.27000,13.312000 225.67000,13.312000 C 226.96000,13.312000 227.95000,12.937000 228.65000,12.187000 C 229.35000,11.438000 229.70000,10.373000 229.70000,8.9941000 L 229.70000,8.1252000 z "
   style="fill:#000000;fill-rule:nonzero;stroke-width:0.0000000;stroke-dashoffset:0.0000000"
   id="path1448" />


<path
   d="M 142.01000,118.06000 L 142.01000,111.71000 L 142.26000,107.15000 L 135.13000,118.06000 L 129.00000,118.06000 L 129.00000,102.74000 L 118.86000,102.74000 L 118.86000,105.88000 L 127.10000,105.88000 L 127.10000,110.54000 L 118.86000,110.54000 L 118.86000,113.40000 L 128.60000,113.40000 L 128.60000,118.06000 L 112.31000,118.06000 L 112.31000,112.44000 C 111.83000,115.89000 109.07000,118.06000 103.87000,118.06000 L 94.238000,118.06000 L 94.238000,108.60000 C 94.066000,113.72000 90.709000,118.59000 83.764000,118.59000 L 83.708000,113.70000 C 86.594000,113.79000 87.704000,110.90000 87.704000,108.18000 C 87.704000,104.88000 86.594000,102.44000 83.764000,102.44000 L 83.764000,102.44000 C 80.628000,102.44000 79.851000,105.63000 79.851000,108.18000 C 79.851000,110.71000 80.738000,113.70000 83.708000,113.70000 L 83.764000,118.59000 C 77.548000,118.59000 73.301000,114.51000 73.301000,108.24000 C 73.301000,101.44000 77.492000,97.551000 83.764000,97.551000 C 89.560000,97.551000 94.063000,101.24000 94.238000,107.79000 L 94.238000,98.079000 L 100.79000,98.079000 L 100.79000,104.30000 L 100.79000,108.96000 L 100.79000,113.40000 L 102.65000,113.40000 C 104.04000,113.40000 106.14000,113.15000 106.14000,111.29000 C 106.14000,109.57000 105.03000,108.96000 103.51000,108.96000 L 103.51000,108.96000 L 100.79000,108.96000 L 100.79000,104.30000 L 104.09000,104.30000 C 109.27000,104.30000 111.85000,106.51000 112.31000,110.09000 L 112.31000,98.079000 L 135.27000,98.079000 L 135.27000,104.41000 L 135.02000,108.96000 L 142.15000,98.079000 L 148.28000,98.079000 L 148.28000,118.06000 L 142.01000,118.06000 z "
   style="fill:#000000;fill-rule:nonzero;stroke-width:0.0000000;stroke-dashoffset:0.0000000"
   id="path1450" />


<polygon
   points="153.14000,64.693000 148.29000,64.693000 148.29000,91.988000 126.31000,91.988000 111.38000,51.804000 96.442000,91.988000 74.459000,91.988000 74.459000,64.693000 69.610000,64.693000 69.610000,43.736000 74.459000,43.736000 74.459000,27.890000 92.710000,27.890000 92.710000,52.891000 102.25000,27.890000 120.50000,27.890000 130.04000,52.889000 130.04000,27.890000 148.29000,27.890000 148.29000,43.736000 153.14000,43.736000 153.14000,64.693000 "
   style="fill:#000000;fill-rule:nonzero;stroke-width:0.0000000;stroke-dashoffset:0.0000000"
   id="polygon1452" />


<path
   d="M 228.17000,35.813000 L 220.52000,43.462000 C 223.25000,48.318000 224.81000,53.917000 224.81000,59.883000 C 224.81000,78.440000 209.77000,93.481000 191.21000,93.481000 C 174.29000,93.481000 160.30000,80.970000 157.96000,64.693000 L 155.99000,64.693000 L 155.99000,43.736000 L 161.75000,43.736000 C 167.46000,33.337000 178.51000,26.287000 191.21000,26.287000 L 191.21000,44.501000 C 182.72000,44.501000 175.83000,51.389000 175.83000,59.883000 C 175.83000,68.379000 182.72000,75.267000 191.21000,75.267000 C 199.71000,75.267000 206.60000,68.379000 206.60000,59.883000 C 206.60000,59.098000 206.52000,58.333000 206.40000,57.579000 L 199.39000,64.596000 L 186.50000,51.708000 L 193.52000,44.693000 C 192.76000,44.579000 192.00000,44.501000 191.21000,44.501000 L 191.21000,44.501000 L 191.21000,26.287000 C 197.18000,26.287000 202.78000,27.849000 207.63000,30.575000 L 215.28000,22.926000 L 228.17000,35.813000 z "
   style="fill:#000000;fill-rule:nonzero;stroke-width:0.0000000;stroke-dashoffset:0.0000000"
   id="path1454" />


<polygon
   points="64.064000,43.736000 66.758000,43.736000 66.758000,64.693000 56.555000,64.693000 46.774000,91.988000 25.403000,91.988000 2.4282000,27.874000 22.999000,27.874000 25.403000,36.333000 46.329000,36.333000 42.677000,49.690000 29.409000,49.690000 35.911000,72.665000 42.677000,49.690000 46.329000,36.333000 48.823000,27.874000 69.748000,27.874000 64.064000,43.736000 "
   style="fill:#000000;fill-rule:nonzero;stroke-width:0.0000000;stroke-dashoffset:0.0000000"
   id="polygon1456" />


</g>
</svg>
